<svg xmlns="http://www.w3.org/2000/svg" xmlns:xlink="http://www.w3.org/1999/xlink" aria-hidden="true" role="img" class="iconify iconify--logos" width="31.88" height="32" preserveAspectRatio="xMidYMid meet" viewBox="0 0 256 257"><defs><linearGradient id="IconifyId1813088fe145d2530" x1="-9.135%" x2="111.411%" y1="9.135%" y2="111.411%"><stop offset="0%" stop-color="#41D1FF"></stop><stop offset="100%" stop-color="#BD34FE"></stop></linearGradient><linearGradient id="IconifyId1813088fe145d2531" x1="12.951%" x2="48.007%" y1="12.951%" y2="48.007%"><stop offset="0%" stop-color="#FF9739"></stop><stop offset="100%" stop-color="#FFE02B"></stop></linearGradient></defs><path fill="url(#IconifyId1813088fe145d2530)" d="M255.153 125.62L134.71 1.625a12.056 12.056 0 0 0-17.02 0L.85 125.62a12.056 12.056 0 0 0 0 17.02L121.29 255.385a12.056 12.056 0 0 0 17.02 0l116.843-112.745a12.056 12.056 0 0 0 0-17.02Z"></path><path fill="url(#IconifyId1813088fe145d2531)" d="M150.81 180.25L127.18 203.4a8.116 8.116 0 0 1-11.45 0l-53.15-51.26a8.116 8.116 0 0 1 0-11.45l23.63-22.78a8.116 8.116 0 0 1 11.45 0l53.15 51.26a8.116 8.116 0 0 1 0 11.45Z"></path></svg>
